<svg viewBox="0 0 32.093 43.945"><path d="M2.663 7.413a1.353 1.353 0 0 0-2.621.665l8.832 34.847a1.352 1.352 0 1 0 2.621-.665L2.663 7.413zm29.397 9.815L27.74 1.285C27.584.709 27.311.092 26.282.031 18.188-.556 12.873 7.505 4.779 6.919c-.639-.079-1.05.254-.894.829 1.44 5.315 2.869 10.632 4.32 15.944.233.852.819 1.175 1.458 1.254 8.094.586 13.409-7.475 21.504-6.888.639.078 1.049-.254.893-.83zM25.708 2.037 26.9 6.436c-1.703.056-3.206.399-4.798.996L20.91 3.033c1.592-.596 3.095-.94 4.798-.996zM9.028 18.476l-1.354-4.998c1.79-.052 3.378-.44 5.039-1.097l-1.192-4.398c1.624-.726 3.156-1.595 4.69-2.493l1.192 4.399c-1.534.897-3.066 1.767-4.69 2.492l1.354 4.999c-1.661.656-3.249 1.044-5.039 1.096zm6.249 3.367-1.21-4.463c1.613-.721 3.134-1.583 4.657-2.474l1.209 4.464c-1.523.891-3.044 1.752-4.656 2.473zm3.48-6.956-1.354-4.998c1.534-.896 3.066-1.753 4.699-2.457l1.354 4.998c-1.632.705-3.165 1.561-4.699 2.457zm5.936 1.995-1.209-4.463c1.583-.59 3.078-.93 4.77-.985l1.209 4.463c-1.691.055-3.187.395-4.77.985z" fill="#fff" fill-rule="nonzero"/></svg>